<svg width="255" height="255" viewBox="0 0 255 255" fill="none" xmlns="http://www.w3.org/2000/svg">
<path d="M228.91 15.42V28.81C228.91 39.41 228.13 48.81 224.23 53.17C223.164 54.6269 221.757 55.8006 220.132 56.5885C218.507 57.3764 216.714 57.7546 214.91 57.69V15.42H198.07V56.42C189.57 55.9 176.01 56.76 165.07 65.29V15.42H148.21C148.21 15.42 148.4 71.87 148.49 99.33L88.1101 17.05C87.7723 16.5905 87.3402 16.2085 86.8428 15.9297C86.3453 15.6509 85.794 15.4816 85.2258 15.4333C84.6576 15.385 84.0856 15.4588 83.5482 15.6496C83.0109 15.8405 82.5205 16.1441 82.1101 16.54C72.8801 25.42 69.7201 53.89 82.1101 82.62L140.52 112.62C148.357 110.611 156.366 109.349 164.44 108.85C164.31 95.22 167.58 83.99 174.17 78.42C185.09 69.21 202.53 72.98 202.68 73.02L203.3 73.14C217.77 75.3 228.87 72.14 236.3 63.7C243.2 55.88 245.79 44.16 245.79 28.78V15.42H228.91Z" fill="currentColor"/>
<path d="M14.1706 54.5708C14.7413 54.5951 15.3008 54.742 15.8102 55.0005L86.2497 90.7905L139.03 118.62C139.26 118.619 140.68 118.03 140.9 117.97C148.792 115.883 156.872 114.586 165.02 114.1L167.12 114C195.3 113 220.57 122.77 220.57 122.77C230.82 125.92 238.889 130.83 240.049 138.48C243.549 161.48 217.22 195.69 183.39 202.88C177.595 203.895 171.739 204.523 165.86 204.76H164.49V239.51C164.49 239.51 124.24 242.92 79.2399 188.74C79.2886 188.618 93.9454 152.117 121.15 126.34C105.67 134.44 67.21 138.54 40.86 116.98C16.2202 96.8401 5.92968 69.5004 10.2194 57.2602C10.4061 56.7203 10.7068 56.2262 11.1003 55.812C11.4936 55.3979 11.9712 55.0729 12.5007 54.8589C13.0302 54.6447 13.5999 54.5464 14.1706 54.5708ZM208.267 150.199C206.179 140.333 188.076 135.819 173.118 138.985C158.16 142.151 144.098 154.13 146.185 163.996C148.273 173.862 165.721 177.879 180.679 174.713C195.638 171.548 210.355 160.065 208.267 150.199Z" fill="currentColor"/>
<circle cx="177.5" cy="156.5" r="14.5" fill="currentColor"/>
</svg>
